<?xml version="1.0"?><svg width="202" height="219" xmlns="http://www.w3.org/2000/svg">
 <g>
  <path d="m155.492111,0c-9.650208,0.17996 -19.665894,4.12848 -19.5625,21.65625c-29.138214,12.759121 -48.94754,42.808441 -52.8125,67.9375c-0.026184,0.109383 -0.036682,0.142548 -0.0625,0.25c-13.567528,-5.141296 -17.244385,-18.118713 -12.53125,-29.90625c1.500153,-4.599819 3.160622,-7.992191 5.458649,-12.326931c0.307861,-0.69471 2.003571,-1.559269 2.630768,-1.559269c7.532265,0.38171 16.598083,-7.781101 16.598083,-18.1763c0,-10.395201 -8.448555,-18.84375 -18.84375,-18.84375c-10.395203,0 -18.72253,7.998659 -18.72253,18.39389c0.220909,2.90659 1.161648,7.342739 0.032959,9.529541c-11.25589,10.66074 -0.918919,-1.860413 -24.029179,27.264069c-23.290192,29.124481 -34.224581,78.281708 -33.625001,99.53125c0.29889,3.981506 -0.13248,9.513702 0.1875,13.46875c6.24051,0.219971 8.72797,0.363007 12.75,0.34375c-0.74716,2.952271 -2.475101,31.67749 -2.75,41.875l26.250001,-0.25c9.771759,-4.104065 -10.431761,-7.772156 -13.468752,-10.78125c1.361881,-8.332214 6.520781,-19.001648 8.125,-30.875l9.156252,0.09375c2.649837,10.240173 7.052769,22.026672 10.53125,31.53125c2.379787,3.464722 1.153538,6.174866 3.3125,9.65625l22.90625,0l0.09375,0c1.008331,0.002197 31.26944,0.946228 33.90625,-0.0625c2.644409,-1.011597 1.789948,-2.1651 1.03125,-3.71875c-0.913452,-2.087158 -12.041321,-5.495056 -11.875,-6.65625c4.861938,-18.249542 4.937592,-33.419739 5.625,-42.5625c4.406441,10.59964 8.173592,20.735901 12.8125,37.875c0.67569,3.247009 1.846649,10.58252 3.0625,15.0625l27,0.09375c1.057373,0.003113 2.969788,-0.971375 2.875,-2.625c-0.175201,-3.1203 -13.705688,-6.190796 -15.03125,-6.875c-0.69101,-0.325439 -0.94989,-2.225403 -1.21875,-3.625c-1.003845,-12.427307 -4.237518,-24.858612 -6.28125,-37.125c-2.685555,-11.559631 -4.79245,-23.11557 -6.65625,-35.28125c-1.109314,-10.626831 -0.551788,-24.221008 1.53125,-32.46875c2.847107,-10.153931 5.544006,-19.28241 13.46875,-28.625c2.372375,-2.278503 4.710114,-0.556213 6.78125,2.53125c9.083527,13.799843 23.595612,28.986481 37.1875,38.65625c-0.122559,0.163063 -0.294739,0.262939 -0.40625,0.4375c-0.803223,1.257446 -1.327972,2.786713 -1.6875,4.65625l4.90625,0.9375c0.276703,-1.438782 0.650055,-2.358429 1,-2.90625c0.045471,-0.071167 0.112885,-0.033173 0.15625,-0.09375c3.470459,2.651123 5.4646,4.037933 7.5,4.5625c0.009613,0.002197 0.021515,0.028961 0.03125,0.03125l-16.40625,97.03125l4.9375,0.8125l16.5,-97.65625c1.171021,-0.373627 2.378571,-1.06839 3.65625,-2.65625c0.814392,-1.490196 2.553192,-4.615417 -3.5625,-7.84375c-9.134735,-6.091797 -16.004639,-13.964844 -24.09375,-22.75c-8.787354,-10.565613 -13.836334,-20.773903 -18.5625,-32.3125c-1.377228,-7.431431 -7.273041,-13.631901 -5.40625,-21.34375c0.312592,-0.30212 0.669678,-0.68713 1,-1c1.135193,0.2598 2.317657,0.40625 3.53125,0.40625c9.249329,1.439579 18.65625,-4.91888 18.65625,-16.6875c0,-8.7095 -8.884247,-17.03125 -17.59375,-17.03125zm-94.78125,95.75c1.369778,-0.07782 2.944981,1.184196 4.90625,3.5625c3.523926,2.799873 9.01532,7.611748 14.28125,7.03125c-0.14563,3.106171 -0.130463,6.868988 0.15625,14.03125c0.736595,9.870605 5.292267,27.861389 5.40625,40.3125c0.008331,11.646088 -2.25592,34.051636 -5.1875,47.625c-1.49057,3.183533 -0.882538,5.210938 -3.96875,5.1875c-0.056435,-0.036682 -0.136902,-0.087463 -0.1875,-0.125c-4.465271,-1.940186 -10.412933,-4.272278 -13.5625,-5.5c-1.012722,-7.416016 -4.442501,-20.801514 -6,-30.53125c1.170559,0.29776 2.859009,0.080048 4.625,-0.34375c-7.142242,-37.522125 -10.796112,-45.664276 -4.1875,-76.8125c1.18475,-2.942291 2.348969,-4.35968 3.71875,-4.4375z" id="path1012" stroke-width="5" fill-rule="evenodd" fill="#f29e38"/>
  <title>Layer 1</title>
 </g>

</svg>